<svg xmlns="http://www.w3.org/2000/svg" viewBox="0 0 96 120" version="1.1">
  <path d="M23.902518,4.2435643C22.868389,4.1014783,21.77569,4.3759036,20.933768,5.110752L6.7365016,17.50333C4.2067019,19.711395,2.836793,23.313617,3.5529079,26.69669C10.146923,57.848158,34.585671,83.880361,67.808768,91.548252C71.107222,92.309535,74.780359,91.238372,77.256033,89.077449L91.453299,76.683018C93.165623,75.188463,92.992018,72.358961,91.109549,71.08536L73.799002,59.372471C72.078896,58.208719,69.764023,58.352518,68.199393,59.718974L62.076346,65.062724C60.471712,66.463284,60.139377,68.871134,61.306815,70.652569L67.429862,76.998272C67.982914,77.992671,70.056204,78.544197,71.294479,78.009056C83.470824,72.743735,93.633342,62.160405,98.546432,50.491477C99.049214,49.297335,98.362387,46.686214,97.271041,45.733664L91.147994,40.390014C89.54236,38.989454,89.210025,36.581604,90.377463,34.800169L96.50051,29.454466C97.606256,28.051172,97.938591,25.643322,96.771153,23.861887L90.648106,18.516184C90.095054,17.521785,88.021764,16.970259,86.783489,17.504712C74.607144,22.770033,64.444626,33.353363,59.531536,45.022291C59.028754,46.216433,59.715581,48.827554,60.806927,49.780104L66.929974,55.124855C68.634608,56.188607,71.595748,55.63708,72.834023,55.172628C85.010368,49.907307,95.172886,39.323977,100.085976,27.655049C100.588758,26.460907,99.901931,23.849786,98.810585,22.897236L92.687538,17.551533C92.074994,16.616847,91.09861,16.058854,90.064482,15.916768L23.902518,4.2435643Z" fill="#000000" />
</svg>
